<svg width="33" height="33" viewBox="0 0 33 33" fill="none" xmlns="http://www.w3.org/2000/svg">
<g clip-path="url(#clip0_5196_2916)">
<path d="M16.5 6.71143H0V26.4902L11.9213 27.1347L16.5 31.7115L20.139 17.6994L16.5 6.71143Z" fill="#FFC239"/>
<path d="M33 6.71143V26.4902L21.0788 27.1347L16.5 31.7115V6.71143H33Z" fill="#3AA3F7"/>
<path d="M5.86523 19.6318H7.79883V23.8671H5.86523V19.6318Z" fill="white"/>
<path d="M9.73242 16.4104H11.666V23.867H9.73242V16.4104Z" fill="white"/>
<path d="M13.5996 18.3433H15.5332V23.8675H13.5996V18.3433Z" fill="white"/>
<path d="M17.4668 15.7659H19.4004V23.867H17.4668V15.7659Z" fill="#E3EAEE"/>
<path d="M21.334 17.699H23.2676V23.8671H21.334V17.699Z" fill="#E3EAEE"/>
<path d="M25.2012 13.833H27.1348V23.8671H25.2012V13.833Z" fill="#E3EAEE"/>
<path d="M9.50965 3.16594C8.02465 4.69734 7.28086 6.22875 7.24992 6.2932L7.04883 6.7115L7.24992 7.12981C7.28086 7.19426 8.02465 8.72566 9.50965 10.2571C11.518 12.3286 13.935 13.423 16.5002 13.423L18.1116 6.7115L16.5002 0C13.935 0 11.518 1.09441 9.50965 3.16594Z" fill="#3AA3F7"/>
<path d="M16.5 13.423V0C19.0652 0 21.4822 1.09441 23.4906 3.16594C24.9756 4.69734 25.7194 6.22875 25.7503 6.2932L25.9514 6.7115L25.7503 7.12981C25.7194 7.19426 24.9756 8.72566 23.4906 10.2571C21.4822 12.3286 19.0652 13.423 16.5 13.423Z" fill="#2A82FF"/>
<path d="M9.22266 6.71086C9.51656 7.21102 10.0915 8.08822 10.9378 8.95254C12.5871 10.6367 14.4588 11.4907 16.5001 11.4907L18.1114 6.71215L16.5001 1.93359C12.3905 1.93359 9.94904 5.47594 9.22266 6.7115V6.71086Z" fill="white"/>
<path d="M23.7774 6.71206C23.051 7.94763 20.6095 11.49 16.5 11.49V1.93286C18.5412 1.93286 20.4129 2.78622 22.0623 4.47103C22.9086 5.3347 23.4835 6.21255 23.7774 6.71271V6.71206Z" fill="#E3EAEE"/>
<path d="M13.5996 6.71136C13.5996 8.30979 14.9009 9.61046 16.5 9.61046L18.1113 6.71136L16.5 3.81226C14.9009 3.81226 13.5996 5.11292 13.5996 6.71136Z" fill="#FFC239"/>
<path d="M19.4004 6.71136C19.4004 8.30979 18.0991 9.61046 16.5 9.61046V3.81226C18.0991 3.81226 19.4004 5.11292 19.4004 6.71136Z" fill="#3AA3F7"/>
<path d="M12.7224 26.4902H0V28.4232H11.9213L16.5 33L17.1445 31.7116L16.5 30.2665L12.7224 26.4902Z" fill="#3AA3F7"/>
<path d="M33 26.4902V28.4232H21.0788L16.5 33V30.2665L20.2776 26.4902H33Z" fill="#FFC239"/>
</g>
<defs>
<clipPath id="clip0_5196_2916">
<rect width="33" height="33" fill="white"/>
</clipPath>
</defs>
</svg>
