<svg width="33" height="33" viewBox="0 0 33 33" fill="none" xmlns="http://www.w3.org/2000/svg">
<g clip-path="url(#clip0_5197_3939)">
<path d="M25.1729 4.79531C22.6502 2.92295 19.6518 1.93359 16.5 1.93359C13.3483 1.93359 10.3499 2.92295 7.82723 4.79531L6.6748 3.24264C9.5333 1.12148 12.9306 0 16.5 0C20.0695 0 23.4668 1.12148 26.3253 3.24264L25.1729 4.79531Z" fill="#42BEFC"/>
<path d="M26.3252 3.24264C23.4667 1.12148 20.0694 0 16.5 0V1.93359C19.6511 1.93359 22.6501 2.92295 25.1728 4.79531L26.3252 3.24264Z" fill="#0184F3"/>
<path d="M32.9999 16.5C32.9999 20.0695 31.8784 23.4668 29.7573 26.3253L28.2046 25.1729C30.077 22.6502 31.0663 19.6518 31.0663 16.5C31.0663 13.3483 30.077 10.3499 28.2046 7.82723L29.7573 6.6748C31.8791 9.5333 32.9999 12.9306 32.9999 16.5Z" fill="#0184F3"/>
<path d="M16.5 32.9999C12.9306 32.9999 9.5333 31.8784 6.6748 29.7573L7.82723 28.2046C10.3493 30.077 13.3483 31.0663 16.5 31.0663C19.6518 31.0663 22.6502 30.077 25.1729 28.2046L26.3253 29.7573C23.4668 31.8791 20.0695 32.9999 16.5 32.9999Z" fill="#42BEFC"/>
<path d="M16.5 31.0663V32.9999C20.0694 32.9999 23.4667 31.8784 26.3252 29.7573L25.1728 28.2046C22.6501 30.077 19.6518 31.0663 16.5 31.0663Z" fill="#0184F3"/>
<path d="M3.24264 26.3253C1.12148 23.4668 0 20.0695 0 16.5C0 12.9306 1.12148 9.5333 3.24264 6.6748L4.79531 7.82723C2.92295 10.3493 1.93359 13.3483 1.93359 16.5C1.93359 19.6518 2.92295 22.6502 4.79531 25.1729L3.24264 26.3253Z" fill="#42BEFC"/>
<path d="M7.8203 3.2123C6.54993 1.94193 4.48291 1.94193 3.21254 3.2123C1.94217 4.48267 1.94217 6.54968 3.21254 7.82005C3.84741 8.45492 4.68207 8.77267 5.51674 8.77267C6.35141 8.77267 7.18543 8.45492 7.82094 7.82005C9.09131 6.54968 9.09131 4.48267 7.82094 3.2123H7.8203Z" fill="#3AA3F7"/>
<path d="M29.7876 25.1798C28.5172 23.9095 26.4502 23.9095 25.1798 25.1798C23.9095 26.4502 23.9095 28.5172 25.1798 29.7876C25.8153 30.4231 26.6494 30.7402 27.484 30.7402C28.3187 30.7402 29.1527 30.4224 29.7882 29.7876C31.0586 28.5172 31.0586 26.4502 29.7882 25.1798H29.7876Z" fill="#42BEFC"/>
<path d="M3.21254 25.1798C1.94217 26.4502 1.94217 28.5172 3.21254 29.7876C3.84741 30.4231 4.68207 30.7402 5.51674 30.7402C6.35141 30.7402 7.18543 30.4224 7.82094 29.7876C9.09131 28.5172 9.09131 26.4502 7.82094 25.1798C6.55057 23.9095 4.48356 23.9095 3.21319 25.1798H3.21254Z" fill="#3AA3F7"/>
<path d="M27.4834 8.7734C28.3181 8.7734 29.1521 8.45565 29.7876 7.82079C31.058 6.55042 31.058 4.4834 29.7876 3.21303C28.5172 1.94266 26.4502 1.94266 25.1798 3.21303C23.9095 4.4834 23.9095 6.55042 25.1798 7.82079C25.8153 8.45565 26.6494 8.7734 27.484 8.7734H27.4834Z" fill="#42BEFC"/>
<path fill-rule="evenodd" clip-rule="evenodd" d="M16.5 7.65625C21.4145 7.65625 25.3984 11.6402 25.3984 16.5547C25.3984 21.4692 21.4145 25.4531 16.5 25.4531C11.5855 25.4531 7.60156 21.4692 7.60156 16.5547C7.60156 11.6402 11.5855 7.65625 16.5 7.65625Z" fill="#FFCD05"/>
<path fill-rule="evenodd" clip-rule="evenodd" d="M16.4994 10.4395C19.8755 10.4395 22.6136 13.1776 22.6136 16.5536C22.6136 19.9297 19.8755 22.6678 16.4994 22.6678C13.1234 22.6678 10.3853 19.9297 10.3853 16.5536C10.3853 13.1776 13.1223 10.4395 16.4994 10.4395Z" fill="#FAA21B"/>
<path fill-rule="evenodd" clip-rule="evenodd" d="M16.4863 11.114V12.2751L16.511 11.114H16.4863ZM16.4863 20.8487V21.9915L16.511 20.8487H16.4863Z" fill="#ECA06E"/>
<path fill-rule="evenodd" clip-rule="evenodd" d="M22.198 13.8438C23.1522 13.8438 23.9273 14.6189 23.9273 15.573C23.9273 16.5272 23.1522 17.2991 22.198 17.2991C21.2439 17.2991 20.4688 16.5272 20.4688 15.573C20.4688 14.6189 21.2439 13.8438 22.198 13.8438Z" fill="#FEEB90"/>
<path d="M19.3955 14.7859L19.1413 15.6532H14.2964L14.5506 14.7859H19.3955ZM17.1226 20.6327L14.3861 17.2831L14.3712 16.6551H15.7319C16.0858 16.6551 16.3874 16.6052 16.6366 16.5055C16.8858 16.4034 17.0765 16.2513 17.2085 16.0495C17.3406 15.8451 17.4067 15.5884 17.4067 15.2794C17.4067 14.8233 17.2696 14.4657 16.9955 14.2065C16.7213 13.9448 16.3001 13.8139 15.7319 13.8139H14.2964L14.5506 12.9766H15.7319C16.34 12.9766 16.8385 13.0775 17.2272 13.2794C17.6185 13.4787 17.9076 13.7529 18.0945 14.1018C18.2839 14.4482 18.3786 14.8407 18.3786 15.2794C18.3786 15.6756 18.2914 16.0407 18.117 16.3747C17.945 16.7062 17.6684 16.9728 17.2871 17.1747C16.9082 17.3766 16.4073 17.4775 15.7842 17.4775H15.7618L18.2889 20.5729V20.6327H17.1226ZM19.3955 12.9766L19.1413 13.8439L15.3282 13.8139L15.5824 12.9766H19.3955Z" fill="white"/>
</g>
<defs>
<clipPath id="clip0_5197_3939">
<rect width="33" height="33" fill="white"/>
</clipPath>
</defs>
</svg>
